<!-- Created with Inkscape (http://www.inkscape.org/) -->
<svg id="svg2" xmlns:inkscape="http://www.inkscape.org/namespaces/inkscape" xmlns:rdf="http://www.w3.org/1999/02/22-rdf-syntax-ns#" xmlns="http://www.w3.org/2000/svg" inkscape:version="0.48.4 r9939" height="297mm" viewBox="0 0 744.09449 1052.3622" width="210mm" version="1.2" xmlns:cc="http://creativecommons.org/ns#" xmlns:dc="http://purl.org/dc/elements/1.1/" sodipodi:docname="bg.svg" xmlns:sodipodi="http://sodipodi.sourceforge.net/DTD/sodipodi-0.dtd">
<sodipodi:namedview id="namedview3003" bordercolor="#666666" inkscape:pageshadow="2" guidetolerance="10" pagecolor="#ffffff" gridtolerance="10" inkscape:zoom="0.56729519" inkscape:window-maximized="1" objecttolerance="10" inkscape:window-height="744" showgrid="false" borderopacity="1" inkscape:current-layer="svg2" inkscape:cx="61.803114" inkscape:cy="526.18109" inkscape:window-y="24" inkscape:window-x="57" inkscape:window-width="1309" inkscape:pageopacity="0"/>
<metadata id="metadata7">
<rdf:RDF>
<cc:Work rdf:about="">
<dc:format>image/svg+xml</dc:format>
<dc:type rdf:resource="http://purl.org/dc/dcmitype/StillImage"/>
<dc:title/>
</cc:Work>
</rdf:RDF>
</metadata>
<text id="text3014" style="word-spacing:0px;letter-spacing:0px;" font-family="Sans" xml:space="preserve" transform="scale(0.98062694,1.0197558)" y="777.87042" sodipodi:linespacing="125%" font-size="304.79745483px" font-style="normal" x="1.0527676" font-weight="normal" line-height="125%" fill="#000000"><tspan id="tspan3016" y="777.87042" x="1.0527676">D</tspan></text>
<text id="text3018" style="word-spacing:0px;letter-spacing:0px;" font-family="Sans" xml:space="preserve" transform="scale(1.2994934,0.76953065)" y="913.98242" sodipodi:linespacing="125%" font-size="91.17455292px" font-style="normal" x="74.341606" font-weight="normal" line-height="125%" fill="#000000"><tspan id="tspan3020" y="913.98242" x="74.341606">i</tspan></text>
<path id="welcomestar" stroke-linejoin="round" d="M553.5,81.087,430.17,52.249,550.77,53.859,469.22-17.36,594.29,45.879,533.2-65.07,607.64,25.947,611.06-82.632,647.75,24.429,689.32-67.008,681.93,53.861,754.47-20.9,678.5,96.88,795.23,47.718,677.93,124.42l126.63,2.5658-97.817,22.356,74.097,53.85-137.25-48.192,84.589,108.16-109.19-87.862,52.556,188.21-64.017-124.68-31.653,115.09-7.7709-196.35-65.538,108.38,49.819-131-103.96,72.357,68.828-87.073-94.431,11.479z" sodipodi:nodetypes="ccccccccccccccccccccccccccccccc" stroke-linecap="round" inkscape:connector-curvature="0" stroke-dashoffset="0" stroke="#f4821c" transform="translate(-47.594273,84.612037)" stroke-miterlimit="26.89999962" stroke-dasharray="9.21300015, 442.2240073" stroke-width="9.2130003" inkscape:label="welcomestar" fill="#000">
<title id="title3836">welcomestar</title>
</path>
<text id="text2995" style="letter-spacing:0px;word-spacing:0px;" line-height="125%" font-weight="normal" xml:space="preserve" transform="scale(0.90993409,1.0989807)" font-size="23.71716118px" font-style="normal" y="179.63649" x="554.09686" font-family="Sans" sodipodi:linespacing="125%" fill="#d45500"><tspan id="tspan2999" sodipodi:role="line" x="554.09686" y="179.63649">Decentral</tspan></text>
</svg>
